<svg width="118" height="46" viewBox="0 0 118 46" fill="none" xmlns="http://www.w3.org/2000/svg">
<path d="M54.0144 5.66563C54.0144 5.66563 55.0359 2.95666 55.1955 0H54.9082C54.9082 0 52.3703 12.1672 38.5156 9.33437C38.5156 9.33437 31.3488 5.04644 23.8148 10.3715C16.2809 15.7121 13.328 18.7926 0 15.2786C0 15.2786 9.68875 23.3746 22.8731 18.1579C22.8731 18.1579 25.8101 19.6594 26.3687 25.7585C26.9274 31.8576 25.6026 34.226 26.672 37.4149C27.7414 40.6037 29.6728 43.3437 32.1947 45.0155H33.8228C33.8228 45.0155 28.4278 39.7368 30.2634 33.3127C30.2634 33.3127 34.7167 28.2043 34.3655 20.5728C34.3655 20.5728 35.004 20.5263 36.0415 20.3406V27.322H44.8683V18.7307H41.5004C45.0758 17.291 49.2099 14.7368 51.8915 10.2322C51.8915 10.2322 55.834 12.4458 59.984 11.4706C60 11.4706 56.5523 10.0464 54.0144 5.66563Z" fill="#2D9ACF"/>
<path d="M54.1178 28H57.5613L54.0113 22.9057L57.2773 19.3912H53.8515L50.8695 22.604V15.3975H47.9763V28H50.8695V26.296L52.0588 25.018L54.1178 28ZM64.1913 19.3912V19.835C63.5523 19.409 62.789 19.1605 61.8305 19.1605C59.5053 19.1605 57.5528 21.113 57.5528 23.6867C57.5528 26.2427 59.5053 28.2308 61.8305 28.2308C62.789 28.2308 63.5523 27.9645 64.1913 27.5385V28H67.0668V19.3912H64.1913ZM62.4163 25.7812C61.2448 25.7812 60.375 24.876 60.375 23.6867C60.375 22.4975 61.2448 21.5922 62.4163 21.5922C63.0375 21.5922 63.641 21.752 64.1913 22.3555V25.018C63.641 25.6215 63.0375 25.7812 62.4163 25.7812ZM74.8772 19.2492C73.5992 19.2492 72.6762 19.6575 71.913 20.3142V19.3912H69.0197V28H71.913V23.0655C72.5875 22.4087 73.475 22.036 74.8772 21.9827V19.2492ZM82.288 19.3912V19.8172C81.649 19.409 80.8857 19.1605 79.9272 19.1605C77.602 19.1605 75.6495 20.9177 75.6495 23.5447C75.6495 25.87 77.602 27.6982 79.9272 27.6982C80.8857 27.6982 81.649 27.4675 82.288 27.077V28.1065C82.288 29.278 81.5247 29.8815 80.5485 29.8815C79.4835 29.8815 78.88 29.3845 78.738 28.5857H75.898C76.04 30.8223 77.9392 32.3133 80.5485 32.3133C83.2465 32.3133 85.1635 30.7513 85.1635 28.0533V19.3912H82.288ZM80.513 25.4085C79.3415 25.4085 78.4717 24.4855 78.4717 23.5447C78.4717 22.3022 79.3415 21.5212 80.513 21.5212C81.1342 21.5212 81.7377 21.6987 82.288 22.32V24.592C81.7377 25.2132 81.1342 25.4085 80.513 25.4085ZM91.4131 19.1605C88.6796 19.1605 86.6739 21.0952 86.6739 23.6867C86.6739 26.3137 88.6796 28.2308 91.4131 28.2308C94.1289 28.2308 96.1346 26.3137 96.1346 23.6867C96.1346 21.0952 94.1289 19.1605 91.4131 19.1605ZM91.4131 25.799C90.2061 25.799 89.4074 24.9115 89.4074 23.7045C89.4074 22.533 90.2061 21.5922 91.4131 21.5922C92.6024 21.5922 93.4011 22.533 93.4011 23.7045C93.4011 24.9115 92.6024 25.799 91.4131 25.799ZM103.392 19.2492C102.114 19.2492 101.191 19.6575 100.427 20.3142V19.3912H97.5341V28H100.427V23.0655C101.102 22.4087 101.989 22.036 103.392 21.9827V19.2492ZM110.743 19.3912V24.7872C110.246 25.3375 109.696 25.6392 109.163 25.6392C108.222 25.6392 107.583 25.0535 107.583 23.8287V19.3912H104.708V24.2725C104.708 26.722 106.199 28.2308 108.382 28.2308C109.305 28.2308 110.051 27.929 110.743 27.3965V28H113.618V19.3912H110.743Z" fill="#212C45"/>
</svg>
